<?xml version="1.0" standalone="no"?>
<!DOCTYPE svg PUBLIC "-//W3C//DTD SVG 20010904//EN"
 "http://www.w3.org/TR/2001/REC-SVG-20010904/DTD/svg10.dtd">
<svg version="1.0" xmlns="http://www.w3.org/2000/svg"
 width="1920.000000pt" height="660.000000pt" viewBox="0 0 1920.000000 660.000000"
 preserveAspectRatio="xMidYMid meet">

<g transform="translate(0.000000,660.000000) scale(0.100000,-0.100000)"
fill="#000000" stroke="none">
<path d="M12839 6480 c-727 -46 -1397 -349 -1914 -865 -453 -451 -750 -1032
-845 -1650 -122 -805 77 -1604 561 -2252 83 -111 87 -118 93 -182 15 -152 105
-593 166 -814 11 -38 19 -72 18 -76 -4 -38 1 -41 76 -41 67 0 74 2 79 22 4 12
0 26 -8 32 -8 7 -20 73 -34 191 -30 253 -51 468 -46 473 2 3 35 -23 73 -56
101 -90 276 -218 397 -292 59 -36 121 -74 138 -86 l32 -20 -2 -131 -3 -131 38
-6 c20 -3 76 -8 124 -11 87 -7 88 -7 97 18 5 14 9 38 9 54 -1 38 11 73 25 73
7 0 46 -13 87 -29 101 -38 301 -95 430 -122 58 -12 109 -25 114 -29 13 -13
-29 -65 -79 -97 -47 -29 -53 -41 -33 -61 19 -19 47 -15 206 33 82 25 151 45
154 45 3 0 4 -10 4 -21 -1 -19 13 -25 122 -54 84 -22 125 -29 127 -21 2 6 6
29 9 50 3 22 9 42 14 45 5 3 14 16 20 27 10 19 23 22 119 28 238 16 537 71
732 137 100 34 105 35 98 10 -8 -31 11 -49 69 -68 40 -12 60 -14 72 -7 9 6 28
48 42 93 25 81 46 111 81 111 27 0 40 -110 19 -166 -12 -30 -2 -48 22 -39 21
8 101 192 115 265 3 18 20 34 56 55 161 89 364 239 535 394 97 88 113 99 157
105 105 16 314 110 478 216 l78 50 -37 52 c-20 29 -37 54 -39 56 -2 2 -53 -13
-114 -32 -61 -20 -119 -36 -129 -36 -15 0 0 29 72 137 245 371 397 770 467
1223 19 121 23 189 23 405 1 160 -4 300 -12 365 -68 542 -259 1014 -585 1450
-116 155 -367 414 -518 534 -300 238 -689 438 -1054 541 -297 85 -681 125
-996 105z m585 -314 c298 -49 530 -122 783 -245 1345 -657 1897 -2287 1227
-3623 -86 -172 -250 -428 -273 -428 -10 0 -210 686 -211 722 0 3 17 9 38 13
56 9 113 45 147 93 26 38 30 53 33 125 3 59 8 85 19 94 22 17 9 104 -26 179
-28 59 -98 134 -126 134 -24 0 -32 30 -37 145 -6 121 -19 160 -63 189 -26 17
-26 17 -16 -3 30 -55 1 -133 -93 -249 -119 -146 -286 -254 -370 -238 -19 4
-50 23 -71 43 -53 52 -136 233 -107 233 7 0 7 10 0 33 -5 17 -13 46 -17 62 -7
27 -9 24 -16 -29 -17 -126 15 -388 74 -626 16 -63 28 -116 26 -118 -1 -1 -15
3 -30 10 -24 11 -29 10 -41 -7 -8 -10 -14 -26 -14 -35 0 -18 66 -54 81 -45 13
9 14 14 -47 -202 -144 -508 -174 -660 -207 -1023 l-12 -134 -67 81 c-84 100
-177 187 -230 214 -24 12 -38 25 -35 34 13 33 78 303 93 387 9 51 17 140 18
198 0 118 -13 175 -69 292 -46 95 -45 106 3 104 l37 -1 1 50 c3 96 4 105 12
105 14 0 35 -105 29 -138 -6 -28 -4 -30 31 -36 20 -3 40 -2 45 3 5 5 3 42 -3
85 -14 87 -9 145 15 178 l17 23 -8 -25 c-14 -46 -6 -114 21 -184 14 -39 24
-78 21 -89 -4 -18 12 -29 68 -43 40 -10 40 22 1 104 -44 94 -46 139 -5 207 40
67 39 113 -4 225 -51 131 -53 149 -22 214 32 68 32 70 0 141 -26 56 -27 62
-19 164 18 220 7 273 -61 313 l-36 21 30 19 c28 18 61 73 49 84 -3 3 -41 -17
-86 -45 l-80 -51 -52 75 c-29 41 -56 75 -61 75 -13 0 -9 -49 7 -80 8 -16 24
-35 35 -43 20 -14 19 -15 -17 -22 -125 -22 -205 -132 -268 -367 l-24 -88 28 0
c34 0 51 -17 51 -51 0 -54 -7 -59 -81 -59 l-68 0 10 -29 c7 -21 7 -36 0 -50
-6 -11 -11 -22 -11 -25 0 -3 32 -6 70 -6 67 0 71 -1 81 -26 10 -28 3 -64 -15
-76 -6 -4 -40 -8 -76 -8 -50 0 -61 -3 -52 -12 16 -16 15 -73 0 -85 -7 -6 -29
-13 -49 -17 -44 -8 -54 -19 -63 -68 l-7 -38 -52 0 c-44 -1 -49 -2 -32 -12 11
-6 33 -22 48 -35 16 -12 42 -23 58 -23 26 0 29 -4 29 -30 0 -16 -13 -51 -30
-76 l-30 -48 20 -33 20 -34 -40 -297 c-21 -163 -53 -410 -69 -548 -17 -138
-42 -312 -56 -388 -27 -149 -101 -475 -116 -514 l-10 -25 -131 7 c-72 4 -140
11 -152 16 -18 6 -23 22 -34 91 -8 46 -31 182 -53 301 -21 120 -39 235 -39
256 0 22 11 124 26 228 14 104 28 251 31 326 l6 138 29 0 c28 0 28 0 12 26
-13 18 -18 51 -19 117 -2 51 -8 134 -14 186 -6 52 -10 95 -9 96 2 1 15 5 31 9
l27 6 0 -108 c0 -185 21 -207 137 -148 39 19 73 42 77 51 3 9 6 70 6 136 0
106 -2 121 -20 139 -11 11 -33 20 -51 20 -31 0 -31 1 -24 37 13 73 6 171 -20
262 -19 64 -23 96 -17 108 13 22 -36 122 -101 208 -42 56 -45 63 -37 100 4 22
10 47 14 56 5 11 -4 20 -31 34 -29 14 -69 20 -173 24 -191 8 -275 4 -260 -13
16 -20 -42 -101 -89 -125 -33 -17 -169 -51 -204 -51 -28 0 -50 26 -42 50 10
32 82 100 106 100 26 0 69 23 93 49 23 25 20 26 -27 6 -20 -8 -50 -15 -67 -15
-23 0 -30 -4 -30 -20 0 -16 -7 -20 -33 -20 -84 0 -208 -62 -246 -123 -20 -32
-47 -123 -76 -251 l-15 -69 30 -34 c17 -18 30 -44 30 -57 0 -26 -108 -136
-135 -136 -9 0 -26 11 -39 25 -13 14 -28 25 -33 25 -5 0 -22 13 -38 30 -43 45
-43 27 0 -26 29 -35 39 -57 43 -94 4 -44 2 -49 -19 -55 -27 -9 -137 -10 -146
-2 -3 3 -8 54 -11 114 l-6 108 -13 -65 c-25 -125 -96 -157 -329 -147 l-132 5
-5 -46 c-3 -26 -16 -172 -29 -325 -13 -152 -26 -277 -29 -277 -6 0 -81 132
-128 228 -42 84 -113 260 -142 350 l-23 72 -48 0 c-42 0 -48 3 -54 25 -5 19
-13 25 -35 25 -24 0 -29 4 -29 25 l0 25 393 -3 c454 -4 473 -2 479 61 6 72 -3
152 -18 152 -18 0 -18 106 -1 164 15 50 82 91 136 82 41 -6 51 -19 51 -69 0
-48 25 -61 52 -27 19 23 17 72 -4 113 -7 14 -3 24 16 44 14 14 26 32 26 41 0
21 -38 79 -62 96 l-20 15 21 43 c11 25 21 52 21 62 0 22 -53 76 -75 76 -14 0
-16 7 -10 38 9 53 -15 79 -84 92 -29 5 -57 7 -62 4 -6 -3 -28 10 -49 30 -45
40 -74 46 -90 17 -8 -17 -15 -18 -45 -10 -44 12 -74 -2 -81 -39 -4 -15 -19
-36 -37 -47 -36 -23 -47 -68 -24 -99 13 -18 12 -22 -14 -43 -37 -32 -43 -56
-24 -93 14 -27 14 -33 0 -60 -18 -34 -19 -73 -4 -102 9 -17 6 -25 -17 -49 -22
-23 -24 -29 -11 -29 15 0 16 -3 6 -21 -12 -23 -7 -246 6 -288 12 -36 -9 -18
-31 26 -10 21 -20 56 -23 78 l-6 40 -64 0 -64 0 -12 -50 c-6 -27 -17 -61 -25
-74 -18 -35 -100 -121 -115 -121 -14 0 -50 187 -66 348 -19 185 -7 536 24 712
50 279 121 498 243 745 187 382 461 710 807 968 374 279 824 457 1307 516 118
15 577 6 694 -13z m-2386 -2450 c27 -7 48 -19 49 -27 10 -80 14 -88 41 -91 23
-2 27 -8 27 -33 0 -21 -7 -33 -25 -42 -58 -29 -75 -87 -46 -158 10 -24 22 -35
35 -35 22 0 29 -24 11 -35 -6 -4 -19 -24 -30 -45 -20 -39 -20 -39 -50 -24 -24
12 -40 13 -77 6 -36 -8 -53 -7 -73 3 -17 9 -31 10 -43 4 -14 -8 -17 -6 -17 14
0 35 36 77 66 77 65 0 99 96 40 111 -62 17 -104 87 -92 157 15 85 17 91 44
101 26 9 26 9 3 10 -20 1 -22 3 -11 16 14 17 56 14 148 -9z m2557 -423 c-24
-45 -55 -57 -55 -20 0 29 18 47 46 47 21 0 22 -2 9 -27z m220 -3 c17 -19 15
-20 -61 -69 -42 -28 -81 -48 -86 -45 -4 3 -8 14 -8 25 0 10 -9 28 -20 39 -23
23 -27 20 68 51 73 23 85 23 107 -1z m131 -97 c8 -18 14 -50 14 -72 0 -54 -20
-144 -34 -153 -14 -9 -102 -10 -145 -2 -39 8 -40 24 -4 129 21 59 39 92 70
124 43 44 43 44 64 25 12 -10 28 -33 35 -51z m-1739 -164 c38 -24 87 -110 78
-138 -10 -31 -53 -71 -76 -71 -26 0 -129 106 -129 133 0 29 51 97 73 97 11 0
35 -9 54 -21z m-624 -503 c6 -193 22 -314 43 -332 10 -8 11 -54 4 -230 -5
-120 -9 -279 -10 -351 0 -73 -2 -133 -5 -133 -12 0 -93 45 -145 80 -61 42
-150 132 -150 152 0 8 -4 49 -10 93 -5 44 -16 202 -25 350 -8 149 -17 280 -20
293 -5 19 -1 22 27 22 87 1 154 65 165 159 3 28 10 51 15 51 6 0 8 28 6 64
l-3 65 51 -51 51 -51 6 -181z m3127 -451 c35 -88 96 -229 136 -314 41 -85 74
-159 74 -166 0 -16 -164 -160 -283 -249 -115 -85 -265 -181 -273 -173 -3 3 6
61 20 129 13 68 28 146 31 173 10 84 62 268 147 523 45 133 82 241 84 240 1
-2 30 -75 64 -163z m-3661 -236 c17 -92 34 -175 37 -185 6 -15 2 -14 -20 6
-16 14 -41 41 -57 61 l-29 37 11 108 c11 114 19 166 25 149 1 -5 17 -85 33
-176z m2441 -207 c0 -81 22 -187 48 -236 36 -66 185 -204 337 -312 l125 -89
-43 -18 c-69 -30 -269 -86 -395 -112 -124 -25 -310 -51 -317 -43 -2 2 13 44
34 94 88 203 137 407 128 534 -4 69 -2 81 32 162 38 90 51 95 51 20z m-1335
-147 c32 -158 75 -276 166 -457 38 -76 65 -138 60 -138 -21 0 -223 63 -309 96
-83 32 -93 39 -88 58 10 41 35 202 41 266 8 82 86 324 99 309 2 -2 16 -62 31
-134z m-306 -111 c30 -6 31 -9 31 -55 0 -55 -5 -57 -72 -39 l-37 11 16 44 c16
48 15 48 62 39z m-231 -117 c2 -24 -1 -37 -9 -37 -13 0 -169 102 -169 111 0 3
39 -4 88 -16 l87 -21 3 -37z m1120 -595 l10 -28 -85 -23 c-71 -20 -86 -22 -94
-10 -17 27 -8 35 69 61 42 14 80 27 84 27 3 1 10 -12 16 -27z m191 -148 c8 -7
-66 -44 -89 -44 -21 0 -25 5 -26 29 l-1 29 56 -5 c31 -3 58 -7 60 -9z"/>
<path d="M14445 4216 c-21 -21 -25 -22 -39 -8 -24 24 -69 5 -80 -34 -7 -24
-15 -31 -33 -31 -32 0 -53 -21 -53 -53 0 -47 26 -60 131 -63 73 -2 106 -8 147
-26 41 -19 51 -28 47 -41 -7 -23 13 -37 21 -16 8 21 33 20 57 -1 20 -18 20
-17 14 15 -4 17 -3 32 2 32 4 0 13 12 19 26 14 29 3 57 -27 73 -13 7 -17 18
-14 35 3 13 0 34 -7 46 -10 19 -18 22 -51 17 -27 -4 -39 -1 -39 7 0 18 -33 46
-54 46 -9 0 -28 -11 -41 -24z m-8 -161 c2 -6 -20 -9 -57 -7 -33 2 -60 8 -60
13 0 13 112 7 117 -6z m118 -37 c25 -12 45 -28 45 -35 0 -9 -17 -4 -55 14 -30
15 -55 31 -55 35 0 13 17 9 65 -14z"/>
<path d="M12091 4094 c-19 -8 -48 -30 -66 -48 l-32 -35 -11 25 c-7 13 -18 24
-26 24 -21 0 -38 -27 -31 -50 6 -18 4 -19 -19 -9 -62 28 -78 -33 -16 -63 26
-13 62 -17 138 -18 l102 0 0 -64 0 -64 40 -4 c23 -2 46 0 52 3 7 4 21 3 32 -3
18 -10 19 -9 9 4 -11 12 -6 29 27 92 22 42 40 85 40 95 0 10 -19 38 -42 61
-68 68 -127 85 -197 54z"/>
<path d="M14304 3988 l-19 -23 23 19 c21 18 27 26 19 26 -2 0 -12 -10 -23 -22z"/>
<path d="M14435 4000 c27 -12 43 -12 25 0 -8 5 -22 9 -30 9 -10 0 -8 -3 5 -9z"/>
<path d="M14420 3950 c0 -5 5 -10 10 -10 6 0 10 5 10 10 0 6 -4 10 -10 10 -5
0 -10 -4 -10 -10z"/>
<path d="M14320 3941 c0 -6 5 -13 10 -16 6 -3 10 1 10 9 0 9 -4 16 -10 16 -5
0 -10 -4 -10 -9z"/>
<path d="M11868 3866 c-26 -19 -22 -27 7 -14 14 6 25 15 25 20 0 12 -12 9 -32
-6z"/>
<path d="M12017 3863 c-7 -11 41 -58 50 -49 4 4 -5 18 -19 32 -14 14 -28 22
-31 17z"/>
<path d="M11870 3789 c0 -24 23 -21 28 4 2 10 -3 17 -12 17 -10 0 -16 -9 -16
-21z"/>
<path d="M11990 3790 c0 -11 7 -20 15 -20 8 0 15 9 15 20 0 11 -7 20 -15 20
-8 0 -15 -9 -15 -20z"/>
<path d="M11913 3750 c-28 -43 -28 -47 -2 -55 28 -9 31 -4 27 46 l-3 44 -22
-35z"/>
<path d="M12124 3766 c-6 -15 12 -56 24 -56 4 1 17 16 29 35 l22 35 -35 0
c-21 0 -37 -6 -40 -14z"/>
<path d="M12275 3737 c2 -36 42 -118 63 -125 24 -8 12 44 -24 101 -19 31 -36
57 -38 57 -1 0 -1 -15 -1 -33z"/>
<path d="M12033 3689 c-6 -6 -26 -15 -45 -19 l-33 -8 31 -1 c30 -1 74 22 63
33 -3 3 -10 1 -16 -5z"/>
<path d="M14715 3629 c-40 -7 -164 -50 -267 -94 -11 -4 -20 0 -29 17 -6 13
-13 25 -15 26 -1 2 -34 -6 -72 -18 -58 -18 -72 -27 -77 -47 -3 -14 -4 -27 -2
-30 3 -2 7 7 11 20 7 29 48 49 82 41 44 -11 56 -61 29 -115 -15 -28 -14 -31
10 -56 14 -15 42 -51 62 -80 21 -29 40 -52 43 -52 10 0 129 157 178 234 71
112 90 134 119 141 18 5 21 9 11 15 -15 10 -15 10 -83 -2z m-190 -109 c-3 -5
-14 -10 -23 -10 -15 0 -15 2 -2 10 20 13 33 13 25 0z"/>
<path d="M11005 3680 c10 -11 20 -20 23 -20 3 0 -3 9 -13 20 -10 11 -20 20
-23 20 -3 0 3 -9 13 -20z"/>
<path d="M10875 3660 c-3 -5 -1 -10 4 -10 6 0 11 5 11 10 0 6 -2 10 -4 10 -3
0 -8 -4 -11 -10z"/>
<path d="M10960 3646 c0 -9 5 -16 10 -16 6 0 10 4 10 9 0 6 -4 13 -10 16 -5 3
-10 -1 -10 -9z"/>
<path d="M15795 1873 l-26 -48 43 -37 c25 -22 66 -45 97 -54 29 -9 78 -27 108
-40 30 -13 59 -22 64 -19 22 14 4 38 -68 97 -43 35 -98 82 -124 106 -25 23
-51 42 -57 42 -6 0 -22 -21 -37 -47z m95 -49 c0 -14 -4 -22 -10 -19 -5 3 -10
17 -10 31 0 14 4 22 10 19 6 -3 10 -17 10 -31z m35 -4 c8 -13 -5 -61 -16 -54
-12 7 -12 64 0 64 6 0 12 -4 16 -10z"/>
<path d="M13797 537 c-10 -26 15 -44 118 -87 55 -23 121 -53 148 -66 35 -18
49 -21 52 -12 7 19 24 102 22 104 -1 1 -22 12 -47 25 -34 17 -71 24 -150 30
-58 4 -112 10 -121 14 -10 4 -19 0 -22 -8z m181 -72 c3 -25 2 -27 -12 -16 -19
16 -22 55 -3 49 6 -3 14 -17 15 -33z m42 -16 c0 -23 -16 -25 -24 -3 -10 25 -7
34 9 28 8 -4 15 -15 15 -25z"/>
<path d="M11640 522 c-14 -9 -27 -21 -28 -25 -6 -12 -93 -54 -129 -62 -26 -5
-33 -12 -33 -30 0 -13 5 -27 12 -31 16 -10 378 -8 388 3 4 4 3 42 -4 83 l-11
75 -85 2 c-67 2 -90 -1 -110 -15z"/>
<path d="M10915 454 c-22 -13 -61 -29 -87 -36 -46 -11 -61 -29 -36 -44 20 -12
292 -7 296 6 2 6 1 31 -3 56 l-6 44 -62 -1 c-46 -1 -72 -7 -102 -25z"/>
</g>
</svg>
